<svg data-v-0dd9719b="" version="1.0" xmlns="http://www.w3.org/2000/svg" xmlns:xlink="http://www.w3.org/1999/xlink" width="100%" height="100%" viewBox="0 0 340.000000 250.000000" preserveAspectRatio="xMidYMid meet" color-interpolation-filters="sRGB" style="margin: auto;"> <rect data-v-0dd9719b="" x="0" y="0" width="100%" height="100%" fill="#fff" fill-opacity="1" class="background"></rect> <rect data-v-0dd9719b="" x="0" y="0" width="100%" height="100%" fill="url(#watermark)" fill-opacity="1" class="watermarklayer"></rect> <g data-v-0dd9719b="" fill="#009fe8" class="icon-text-wrapper icon-svg-group iconsvg" transform="translate(48.0050048828125,95.14450073242188)"><g class="iconsvg-imagesvg" transform="translate(0,0)"><g><rect fill="#009fe8" fill-opacity="0" stroke-width="2" x="0" y="0" width="60" height="59.7109987659727" class="image-rect"></rect> <svg x="0" y="0" width="60" height="59.7109987659727" filtersec="colorsb1322506878" class="image-svg-svg primary" style="overflow: visible;"><svg version="1.1" id="图层_1" xmlns="http://www.w3.org/2000/svg" xmlns:xlink="http://www.w3.org/1999/xlink" x="0px" y="0px" viewBox="1.75 2.190000057220459 89.25 88.81999969482422" enable-background="new 0 0 92 92" xml:space="preserve">
<path fill="#009FE8" d="M30.76,89.15c2.08,0.76,4.23,1.37,6.45,1.83l8.99-15.58l9.02,15.61c2.22-0.44,4.37-1.05,6.46-1.8
	l-15.48-26.8L30.76,89.15z M91,53.88H60.3l15.59,26.99c1.7-1.47,3.28-3.06,4.75-4.76l-9.09-15.73h17.9
	C90.13,58.27,90.64,56.1,91,53.88z M1.75,54.71c0.4,2.23,0.97,4.4,1.68,6.5h17.62l-8.8,15.24c1.48,1.68,3.07,3.26,4.79,4.71
	L32.3,54.71H1.75z M90.92,38.9c-0.38-2.22-0.92-4.39-1.61-6.5H70.93l9.19-15.92c-1.49-1.67-3.08-3.23-4.81-4.66L59.68,38.9H90.92z
	 M61.67,3.99c-2.09-0.75-4.24-1.36-6.46-1.8L46.19,17.8L37.21,2.22c-2.21,0.45-4.37,1.06-6.45,1.82l15.43,26.75L61.67,3.99z
	 M17.62,11.55c-1.73,1.42-3.35,2.95-4.84,4.6l8.9,15.42H3.57c-0.74,2.1-1.33,4.27-1.75,6.5h31.1L17.62,11.55z"></path>
</svg></svg> <!----></g></g> <g transform="translate(67,1.79425048828125)"><g data-gra="path-name" fill-rule="" class="tp-name iconsvg-namesvg" transform="translate(0,0)"><g transform="scale(1)"><g><path d="M1.35 4.5L6.88 4.5C7.51 2.07 7.96-0.36 8.23-2.88L11.43-2.88 11.43 4.5 16.38 4.5 16.38-26.77 3.73-26.77 3.73-11.52C3.73-5.49 3.24-0.85 1.35 4.5ZM2.88-29.07L11.83-29.07 11.83-27.54 17.68-27.54 17.68-29.07 27.31-29.07 27.31-27.72 33.16-27.72 33.16-29.07 42.12-29.07 42.12-34.38 33.16-34.38 33.16-36.67 27.31-36.67 27.31-34.38 17.68-34.38 17.68-36.67 11.83-36.67 11.83-34.38 2.88-34.38ZM8.59-7.96C8.69-9.13 8.69-10.3 8.69-11.52L8.69-12.01 11.43-12.01 11.43-7.96ZM8.69-17.1L8.69-21.11 11.43-21.11 11.43-17.1ZM17.05-3.92C18.72-4.41 20.2-5 21.51-5.71L22.41-2.97 25.33-2.97 17.28-0.04 17.28 4.5 27.36 0.85 27.36 4.5 33.03 4.5 33.03 0.9 43.02 4.5 43.02-0.04 34.96-2.97 37.89-2.97 38.79-5.67C40.09-5 41.53-4.41 43.2-3.92L43.2-8.82C40.77-9.58 38.88-10.93 37.66-12.78L43.02-12.78 43.02-17.37 33.07-17.37 33.07-19.48 42.25-19.48 42.25-23.98 40.32-23.98 41.17-26.73 36.41-26.73 35.55-23.98 33.07-23.98 33.07-27.04 27.31-27.04 27.31-23.98 24.79-23.98 23.94-26.73 19.17-26.73 20.02-23.98 18.09-23.98 18.09-19.48 27.31-19.48 27.31-17.37 17.32-17.37 17.32-12.78 22.59-12.78C21.38-10.93 19.48-9.58 17.05-8.82ZM24.48-7.79C26.05-9.18 27.18-10.84 27.95-12.78L32.31-12.78C33.07-10.84 34.2-9.18 35.77-7.79L34.7-7.79 33.3-3.55 33.03-3.65 33.03-10.75 27.36-10.75 27.36-3.69 27-3.55 25.61-7.79ZM48.91 3.24L87.75 3.24 82.44-9.22 75.87-9.22 78.7-2.56 58.95-2.56 66.69-16.11 87.75-16.11 87.75-21.87 47.25-21.87 47.25-16.11 59.8-16.11 52.06-2.56 48.91-2.56ZM50.45-28.66L84.56-28.66 84.56-34.42 50.45-34.42ZM93.28 4.5L99 4.5 99 1.75 103.55 1.75 106.52-7.38 109.48 1.75 115.52 1.75 118.48-7.38 121.45 1.75 126 1.75 126 4.5 131.72 4.5 131.72-34.92 93.28-34.92ZM99-0.58L99-29.11 126-29.11 126-27.13 121.19-27.13 118.75-19.44 116.33-27.13 109.22-27.13 106.78-19.48 104.4-27.13 99.09-27.13 103.41-14.04ZM109.71-13.72L112.59-22.45 115.38-14.04 112.5-5.22ZM121.68-13.72L126-26.73 126-0.58ZM137.21 4.23L152.1 2.75 152.1-3.06 137.21-1.57ZM136.71-19.89L141.88-16.96 137.88-6.12 151.88-6.12 151.88-11.92 146.38-11.92 152.32-27.95 147.06-27.95 144.94-22.23 143.41-23.13 148.32-36 142.78-36ZM152.82-13C157.72-14.13 162.04-15.93 165.6-18.36 169.11-15.93 173.43-14.13 178.34-13L178.34-18.99C175.09-19.89 172.35-20.93 170.06-22.23 173.34-25.83 175.41-30.38 175.91-35.68L158.18-35.68C157.09-33.25 155.52-31.5 153.27-30.15L153.27-24.52C155.03-25.06 156.56-25.83 157.86-26.82 158.76-25.15 159.84-23.63 161.1-22.23 158.81-20.93 156.06-19.89 152.82-18.99ZM154.8 4.18L176.31 4.18 176.31-13.23 154.8-13.23ZM160.6-1.53L160.6-7.51 170.5-7.51 170.5-1.53ZM162.36-30.15L168.7-30.15C167.89-28.39 166.86-26.91 165.56-25.56 164.25-26.91 163.22-28.39 162.36-30.15Z" transform="translate(-1.350000023841858, 36.66999816894531)"></path></g> <!----> <!----> <!----> <!----> <!----> <!----> <!----></g></g> <g data-gra="path-slogan" fill-rule="" class="tp-slogan iconsvg-slogansvg" fill="#009fe8" transform="translate(5,47.16999816894531)"><rect x="0" height="1" y="3.9750003814697266" width="19.18499755859375"></rect> <rect height="1" y="3.9750003814697266" width="19.18499755859375" x="147.80499267578125"></rect> <g transform="translate(22.18499755859375,0)"><g transform="scale(1)"><path d="M3.09-7.59L0.19-7.59L0.19-8.58L7.13-8.58L7.13-7.59L4.22-7.59L4.22 0L3.09 0L3.09-7.59ZM9.47-1.03L14.63-1.03L14.63 0L8.30 0L8.30-8.58L14.53-8.58L14.53-7.59L9.47-7.59L9.47-4.92L14.16-4.92L14.16-3.89L9.47-3.89L9.47-1.03ZM17.53-8.58L21.84-1.64L21.84-8.58L22.97-8.58L22.97 0L21.66 0L17.30-6.94L17.25-6.94L17.25 0L16.13 0L16.13-8.58L17.53-8.58ZM31.17-3.61L28.55-3.61L28.55-4.59L32.30-4.59L32.30 0L31.55 0L31.27-1.08Q30.28 0.09 28.45 0.14L28.45 0.14Q26.72 0.14 25.78-0.75L25.78-0.75Q24.38-2.06 24.42-4.36L24.42-4.36Q24.75-8.63 28.50-8.81L28.50-8.81Q31.69-8.63 32.16-6L32.16-6L31.03-6Q30.56-7.78 28.45-7.83L28.45-7.83Q25.78-7.64 25.64-4.31L25.64-4.31Q25.64-0.75 28.50-0.75L28.50-0.75Q29.53-0.75 30.28-1.31L30.28-1.31Q31.22-2.06 31.17-3.61L31.17-3.61ZM41.02-8.58L37.78-3.47L37.78 0L36.61 0L36.61-3.47L33.38-8.58L34.73-8.58L37.17-4.45L39.66-8.58L41.02-8.58ZM47.72-3.19L47.72-8.58L48.89-8.58L48.89-3.05Q48.75 0.05 45.38 0.14L45.38 0.14Q42.23 0.05 42.09-2.86L42.09-2.86L42.09-8.58L43.27-8.58L43.27-3.19Q43.31-0.84 45.42-0.80L45.42-0.80Q47.72-0.84 47.72-3.19L47.72-3.19ZM52.08-8.58L56.39-1.64L56.39-8.58L57.52-8.58L57.52 0L56.20 0L51.84-6.94L51.80-6.94L51.80 0L50.67 0L50.67-8.58L52.08-8.58ZM64.03-8.58L68.34-1.64L68.34-8.58L69.47-8.58L69.47 0L68.16 0L63.80-6.94L63.75-6.94L63.75 0L62.63 0L62.63-8.58L64.03-8.58ZM72.56-1.03L77.72-1.03L77.72 0L71.39 0L71.39-8.58L77.63-8.58L77.63-7.59L72.56-7.59L72.56-4.92L77.25-4.92L77.25-3.89L72.56-3.89L72.56-1.03ZM81.42-7.59L78.52-7.59L78.52-8.58L85.45-8.58L85.45-7.59L82.55-7.59L82.55 0L81.42 0L81.42-7.59ZM91.27-7.13L91.22-7.13L89.25 0L88.03 0L85.78-8.58L87-8.58L88.64-1.59L88.69-1.59L90.61-8.58L91.88-8.58L93.80-1.59L93.84-1.59L95.44-8.58L96.70-8.58L94.45 0L93.23 0L91.27-7.13ZM104.58-4.27L104.58-4.27Q104.39-7.64 101.58-7.83L101.58-7.83Q98.72-7.69 98.58-4.27L98.58-4.27Q98.72-0.94 101.58-0.80L101.58-0.80Q104.39-0.98 104.58-4.27ZM105.75-4.27L105.75-4.27Q105.47 0 101.58 0.14L101.58 0.14Q97.64 0 97.36-4.27L97.36-4.27Q97.59-8.72 101.58-8.81L101.58-8.81Q105.47-8.67 105.75-4.27ZM111.23-3.70L108.42-3.70L108.42 0L107.25 0L107.25-8.58L111.23-8.58Q114.09-8.58 114.09-6.28L114.09-6.28Q114.09-4.88 112.88-4.22L112.88-4.22Q113.91-3.94 113.91-2.58L113.91-2.58L114-1.03Q113.95-0.38 114.42-0.19L114.42-0.19L114.42 0L112.97 0Q112.83-0.61 112.78-2.16L112.78-2.16Q112.83-3.70 111.23-3.70L111.23-3.70ZM111.33-7.64L108.42-7.64L108.42-4.69L111.14-4.69Q112.88-4.69 112.88-6.19L112.88-6.19Q112.88-7.64 111.33-7.64L111.33-7.64ZM118.27-4.31L116.91-3.05L116.91 0L115.73 0L115.73-8.58L116.91-8.58L116.91-4.41L121.08-8.58L122.72-8.58L119.11-5.11L122.81 0L121.27 0L118.27-4.31Z" transform="translate(-0.1875, 8.8125)"></path></g></g></g></g></g></svg>